<?xml version="1.0" encoding="utf-8"?>
<svg xmlns="http://www.w3.org/2000/svg" xmlns:xlink="http://www.w3.org/1999/xlink" width="600" height="400" viewBox="0 0 2400 1600">
<defs>
  <clipPath id="clip700">
    <rect x="0" y="0" width="2400" height="1600"/>
  </clipPath>
</defs>
<path clip-path="url(#clip700)" d="
M0 1600 L2400 1600 L2400 0 L0 0  Z
  " fill="#ffffff" fill-rule="evenodd" fill-opacity="1"/>
<defs>
  <clipPath id="clip701">
    <rect x="480" y="0" width="1681" height="1600"/>
  </clipPath>
</defs>
<path clip-path="url(#clip700)" d="
M147.478 1486.45 L1152.76 1486.45 L1152.76 123.472 L147.478 123.472  Z
  " fill="#ffffff" fill-rule="evenodd" fill-opacity="1"/>
<defs>
  <clipPath id="clip702">
    <rect x="147" y="123" width="1006" height="1364"/>
  </clipPath>
</defs>
<polyline clip-path="url(#clip702)" style="stroke:#000000; stroke-linecap:butt; stroke-linejoin:round; stroke-width:2; stroke-opacity:0.1; fill:none" points="
  191.263,1486.45 191.263,123.472 
  "/>
<polyline clip-path="url(#clip702)" style="stroke:#000000; stroke-linecap:butt; stroke-linejoin:round; stroke-width:2; stroke-opacity:0.1; fill:none" points="
  420.661,1486.45 420.661,123.472 
  "/>
<polyline clip-path="url(#clip702)" style="stroke:#000000; stroke-linecap:butt; stroke-linejoin:round; stroke-width:2; stroke-opacity:0.1; fill:none" points="
  650.06,1486.45 650.06,123.472 
  "/>
<polyline clip-path="url(#clip702)" style="stroke:#000000; stroke-linecap:butt; stroke-linejoin:round; stroke-width:2; stroke-opacity:0.1; fill:none" points="
  879.458,1486.45 879.458,123.472 
  "/>
<polyline clip-path="url(#clip702)" style="stroke:#000000; stroke-linecap:butt; stroke-linejoin:round; stroke-width:2; stroke-opacity:0.1; fill:none" points="
  1108.86,1486.45 1108.86,123.472 
  "/>
<polyline clip-path="url(#clip700)" style="stroke:#000000; stroke-linecap:butt; stroke-linejoin:round; stroke-width:4; stroke-opacity:1; fill:none" points="
  147.478,1486.45 1152.76,1486.45 
  "/>
<polyline clip-path="url(#clip700)" style="stroke:#000000; stroke-linecap:butt; stroke-linejoin:round; stroke-width:4; stroke-opacity:1; fill:none" points="
  191.263,1486.45 191.263,1467.55 
  "/>
<polyline clip-path="url(#clip700)" style="stroke:#000000; stroke-linecap:butt; stroke-linejoin:round; stroke-width:4; stroke-opacity:1; fill:none" points="
  420.661,1486.45 420.661,1467.55 
  "/>
<polyline clip-path="url(#clip700)" style="stroke:#000000; stroke-linecap:butt; stroke-linejoin:round; stroke-width:4; stroke-opacity:1; fill:none" points="
  650.06,1486.45 650.06,1467.55 
  "/>
<polyline clip-path="url(#clip700)" style="stroke:#000000; stroke-linecap:butt; stroke-linejoin:round; stroke-width:4; stroke-opacity:1; fill:none" points="
  879.458,1486.45 879.458,1467.55 
  "/>
<polyline clip-path="url(#clip700)" style="stroke:#000000; stroke-linecap:butt; stroke-linejoin:round; stroke-width:4; stroke-opacity:1; fill:none" points="
  1108.86,1486.45 1108.86,1467.55 
  "/>
<path clip-path="url(#clip700)" d="M161.205 1532.02 L190.881 1532.02 L190.881 1535.95 L161.205 1535.95 L161.205 1532.02 Z" fill="#000000" fill-rule="evenodd" fill-opacity="1" /><path clip-path="url(#clip700)" d="M205.001 1544.91 L221.32 1544.91 L221.32 1548.85 L199.376 1548.85 L199.376 1544.91 Q202.038 1542.16 206.621 1537.53 Q211.228 1532.88 212.409 1531.53 Q214.654 1529.01 215.533 1527.27 Q216.436 1525.51 216.436 1523.82 Q216.436 1521.07 214.492 1519.33 Q212.571 1517.6 209.469 1517.6 Q207.27 1517.6 204.816 1518.36 Q202.385 1519.13 199.608 1520.68 L199.608 1515.95 Q202.432 1514.82 204.885 1514.24 Q207.339 1513.66 209.376 1513.66 Q214.746 1513.66 217.941 1516.35 Q221.135 1519.03 221.135 1523.52 Q221.135 1525.65 220.325 1527.57 Q219.538 1529.47 217.432 1532.07 Q216.853 1532.74 213.751 1535.95 Q210.649 1539.15 205.001 1544.91 Z" fill="#000000" fill-rule="evenodd" fill-opacity="1" /><path clip-path="url(#clip700)" d="M390.418 1532.02 L420.094 1532.02 L420.094 1535.95 L390.418 1535.95 L390.418 1532.02 Z" fill="#000000" fill-rule="evenodd" fill-opacity="1" /><path clip-path="url(#clip700)" d="M430.997 1544.91 L438.636 1544.91 L438.636 1518.55 L430.325 1520.21 L430.325 1515.95 L438.589 1514.29 L443.265 1514.29 L443.265 1544.91 L450.904 1544.91 L450.904 1548.85 L430.997 1548.85 L430.997 1544.91 Z" fill="#000000" fill-rule="evenodd" fill-opacity="1" /><path clip-path="url(#clip700)" d="M650.06 1517.37 Q646.448 1517.37 644.62 1520.93 Q642.814 1524.47 642.814 1531.6 Q642.814 1538.71 644.62 1542.27 Q646.448 1545.82 650.06 1545.82 Q653.694 1545.82 655.499 1542.27 Q657.328 1538.71 657.328 1531.6 Q657.328 1524.47 655.499 1520.93 Q653.694 1517.37 650.06 1517.37 M650.06 1513.66 Q655.87 1513.66 658.925 1518.27 Q662.004 1522.85 662.004 1531.6 Q662.004 1540.33 658.925 1544.94 Q655.87 1549.52 650.06 1549.52 Q644.249 1549.52 641.171 1544.94 Q638.115 1540.33 638.115 1531.6 Q638.115 1522.85 641.171 1518.27 Q644.249 1513.66 650.06 1513.66 Z" fill="#000000" fill-rule="evenodd" fill-opacity="1" /><path clip-path="url(#clip700)" d="M869.84 1544.91 L877.479 1544.91 L877.479 1518.55 L869.169 1520.21 L869.169 1515.95 L877.433 1514.29 L882.108 1514.29 L882.108 1544.91 L889.747 1544.91 L889.747 1548.85 L869.84 1548.85 L869.84 1544.91 Z" fill="#000000" fill-rule="evenodd" fill-opacity="1" /><path clip-path="url(#clip700)" d="M1103.51 1544.91 L1119.83 1544.91 L1119.83 1548.85 L1097.88 1548.85 L1097.88 1544.91 Q1100.55 1542.16 1105.13 1537.53 Q1109.74 1532.88 1110.92 1531.53 Q1113.16 1529.01 1114.04 1527.27 Q1114.94 1525.51 1114.94 1523.82 Q1114.94 1521.07 1113 1519.33 Q1111.08 1517.6 1107.98 1517.6 Q1105.78 1517.6 1103.32 1518.36 Q1100.89 1519.13 1098.12 1520.68 L1098.12 1515.95 Q1100.94 1514.82 1103.39 1514.24 Q1105.85 1513.66 1107.88 1513.66 Q1113.25 1513.66 1116.45 1516.35 Q1119.64 1519.03 1119.64 1523.52 Q1119.64 1525.65 1118.83 1527.57 Q1118.05 1529.47 1115.94 1532.07 Q1115.36 1532.74 1112.26 1535.95 Q1109.16 1539.15 1103.51 1544.91 Z" fill="#000000" fill-rule="evenodd" fill-opacity="1" /><polyline clip-path="url(#clip702)" style="stroke:#000000; stroke-linecap:butt; stroke-linejoin:round; stroke-width:2; stroke-opacity:0.1; fill:none" points="
  147.478,1263.69 1152.76,1263.69 
  "/>
<polyline clip-path="url(#clip702)" style="stroke:#000000; stroke-linecap:butt; stroke-linejoin:round; stroke-width:2; stroke-opacity:0.1; fill:none" points="
  147.478,1034.29 1152.76,1034.29 
  "/>
<polyline clip-path="url(#clip702)" style="stroke:#000000; stroke-linecap:butt; stroke-linejoin:round; stroke-width:2; stroke-opacity:0.1; fill:none" points="
  147.478,804.895 1152.76,804.895 
  "/>
<polyline clip-path="url(#clip702)" style="stroke:#000000; stroke-linecap:butt; stroke-linejoin:round; stroke-width:2; stroke-opacity:0.1; fill:none" points="
  147.478,575.497 1152.76,575.497 
  "/>
<polyline clip-path="url(#clip702)" style="stroke:#000000; stroke-linecap:butt; stroke-linejoin:round; stroke-width:2; stroke-opacity:0.1; fill:none" points="
  147.478,346.098 1152.76,346.098 
  "/>
<polyline clip-path="url(#clip700)" style="stroke:#000000; stroke-linecap:butt; stroke-linejoin:round; stroke-width:4; stroke-opacity:1; fill:none" points="
  147.478,1486.45 147.478,123.472 
  "/>
<polyline clip-path="url(#clip700)" style="stroke:#000000; stroke-linecap:butt; stroke-linejoin:round; stroke-width:4; stroke-opacity:1; fill:none" points="
  147.478,1263.69 166.376,1263.69 
  "/>
<polyline clip-path="url(#clip700)" style="stroke:#000000; stroke-linecap:butt; stroke-linejoin:round; stroke-width:4; stroke-opacity:1; fill:none" points="
  147.478,1034.29 166.376,1034.29 
  "/>
<polyline clip-path="url(#clip700)" style="stroke:#000000; stroke-linecap:butt; stroke-linejoin:round; stroke-width:4; stroke-opacity:1; fill:none" points="
  147.478,804.895 166.376,804.895 
  "/>
<polyline clip-path="url(#clip700)" style="stroke:#000000; stroke-linecap:butt; stroke-linejoin:round; stroke-width:4; stroke-opacity:1; fill:none" points="
  147.478,575.497 166.376,575.497 
  "/>
<polyline clip-path="url(#clip700)" style="stroke:#000000; stroke-linecap:butt; stroke-linejoin:round; stroke-width:4; stroke-opacity:1; fill:none" points="
  147.478,346.098 166.376,346.098 
  "/>
<path clip-path="url(#clip700)" d="M51.3625 1264.14 L81.0383 1264.14 L81.0383 1268.08 L51.3625 1268.08 L51.3625 1264.14 Z" fill="#000000" fill-rule="evenodd" fill-opacity="1" /><path clip-path="url(#clip700)" d="M95.1586 1277.04 L111.478 1277.04 L111.478 1280.97 L89.5336 1280.97 L89.5336 1277.04 Q92.1956 1274.28 96.7789 1269.65 Q101.385 1265 102.566 1263.66 Q104.811 1261.13 105.691 1259.4 Q106.594 1257.64 106.594 1255.95 Q106.594 1253.19 104.649 1251.46 Q102.728 1249.72 99.6261 1249.72 Q97.4271 1249.72 94.9734 1250.49 Q92.5428 1251.25 89.7651 1252.8 L89.7651 1248.08 Q92.5891 1246.94 95.0428 1246.37 Q97.4965 1245.79 99.5335 1245.79 Q104.904 1245.79 108.098 1248.47 Q111.293 1251.16 111.293 1255.65 Q111.293 1257.78 110.483 1259.7 Q109.696 1261.6 107.589 1264.19 Q107.01 1264.86 103.909 1268.08 Q100.807 1271.27 95.1586 1277.04 Z" fill="#000000" fill-rule="evenodd" fill-opacity="1" /><path clip-path="url(#clip700)" d="M50.9921 1034.74 L80.6679 1034.74 L80.6679 1038.68 L50.9921 1038.68 L50.9921 1034.74 Z" fill="#000000" fill-rule="evenodd" fill-opacity="1" /><path clip-path="url(#clip700)" d="M91.5706 1047.64 L99.2095 1047.64 L99.2095 1021.27 L90.8993 1022.94 L90.8993 1018.68 L99.1632 1017.01 L103.839 1017.01 L103.839 1047.64 L111.478 1047.64 L111.478 1051.57 L91.5706 1051.57 L91.5706 1047.64 Z" fill="#000000" fill-rule="evenodd" fill-opacity="1" /><path clip-path="url(#clip700)" d="M99.5335 790.694 Q95.9224 790.694 94.0937 794.258 Q92.2882 797.8 92.2882 804.93 Q92.2882 812.036 94.0937 815.601 Q95.9224 819.143 99.5335 819.143 Q103.168 819.143 104.973 815.601 Q106.802 812.036 106.802 804.93 Q106.802 797.8 104.973 794.258 Q103.168 790.694 99.5335 790.694 M99.5335 786.99 Q105.344 786.99 108.399 791.596 Q111.478 796.18 111.478 804.93 Q111.478 813.657 108.399 818.263 Q105.344 822.846 99.5335 822.846 Q93.7234 822.846 90.6447 818.263 Q87.5892 813.657 87.5892 804.93 Q87.5892 796.18 90.6447 791.596 Q93.7234 786.99 99.5335 786.99 Z" fill="#000000" fill-rule="evenodd" fill-opacity="1" /><path clip-path="url(#clip700)" d="M91.5706 588.841 L99.2095 588.841 L99.2095 562.476 L90.8993 564.142 L90.8993 559.883 L99.1632 558.217 L103.839 558.217 L103.839 588.841 L111.478 588.841 L111.478 592.777 L91.5706 592.777 L91.5706 588.841 Z" fill="#000000" fill-rule="evenodd" fill-opacity="1" /><path clip-path="url(#clip700)" d="M95.1586 359.443 L111.478 359.443 L111.478 363.378 L89.5336 363.378 L89.5336 359.443 Q92.1956 356.688 96.7789 352.059 Q101.385 347.406 102.566 346.063 Q104.811 343.54 105.691 341.804 Q106.594 340.045 106.594 338.355 Q106.594 335.601 104.649 333.864 Q102.728 332.128 99.6261 332.128 Q97.4271 332.128 94.9734 332.892 Q92.5428 333.656 89.7651 335.207 L89.7651 330.485 Q92.5891 329.351 95.0428 328.772 Q97.4965 328.193 99.5335 328.193 Q104.904 328.193 108.098 330.878 Q111.293 333.564 111.293 338.054 Q111.293 340.184 110.483 342.105 Q109.696 344.003 107.589 346.596 Q107.01 347.267 103.909 350.485 Q100.807 353.679 95.1586 359.443 Z" fill="#000000" fill-rule="evenodd" fill-opacity="1" /><path clip-path="url(#clip700)" d="M532.641 27.2059 L540.337 27.2059 L540.337 46.0426 L559.903 27.2059 L568.977 27.2059 L551.113 44.3007 L571.772 72.576 L562.658 72.576 L545.887 49.1618 L540.337 54.3874 L540.337 72.576 L532.641 72.576 L532.641 27.2059 Z" fill="#000000" fill-rule="evenodd" fill-opacity="1" /><path clip-path="url(#clip700)" d="M582.588 34.9026 L634.521 34.9026 L634.521 41.7081 L582.588 41.7081 L582.588 34.9026 M582.588 51.4303 L634.521 51.4303 L634.521 58.3168 L582.588 58.3168 L582.588 51.4303 Z" fill="#000000" fill-rule="evenodd" fill-opacity="1" /><path clip-path="url(#clip700)" d="M653.601 65.6895 L666.969 65.6895 L666.969 19.5497 L652.426 22.4663 L652.426 15.0127 L666.888 12.096 L675.07 12.096 L675.07 65.6895 L688.438 65.6895 L688.438 72.576 L653.601 72.576 L653.601 65.6895 Z" fill="#000000" fill-rule="evenodd" fill-opacity="1" /><path clip-path="url(#clip700)" d="M704.966 62.2867 L713.514 62.2867 L713.514 72.576 L704.966 72.576 L704.966 62.2867 Z" fill="#000000" fill-rule="evenodd" fill-opacity="1" /><path clip-path="url(#clip700)" d="M732.755 65.6895 L746.123 65.6895 L746.123 19.5497 L731.581 22.4663 L731.581 15.0127 L746.042 12.096 L754.225 12.096 L754.225 65.6895 L767.593 65.6895 L767.593 72.576 L732.755 72.576 L732.755 65.6895 Z" fill="#000000" fill-rule="evenodd" fill-opacity="1" /><polyline clip-path="url(#clip702)" style="stroke:#808080; stroke-linecap:butt; stroke-linejoin:round; stroke-width:4; stroke-opacity:1; fill:none" points="
  396.17,705.471 390.67,721.023 386.213,736.912 382.82,753.076 380.502,769.448 379.27,785.962 379.128,802.553 380.077,819.154 382.113,835.697 385.228,852.116 
  389.41,868.344 394.641,884.318 400.901,899.971 408.163,915.242 416.4,930.068 425.578,944.39 435.66,958.151 446.604,971.294 458.369,983.768 470.905,995.521 
  484.162,1006.51 498.088,1016.68 512.625,1026 527.716,1034.43 543.299,1041.94 559.313,1048.49 575.691,1054.06 592.369,1058.63 609.28,1062.18 626.355,1064.69 
  643.525,1066.15 660.721,1066.56 677.875,1065.92 694.916,1064.23 711.777,1061.49 728.39,1057.72 744.686,1052.93 760.602,1047.15 776.073,1040.38 791.037,1032.67 
  805.432,1024.04 819.203,1014.53 832.292,1004.18 844.647,993.023 856.219,981.109 866.96,968.485 876.828,955.202 885.783,941.314 893.789,926.877 900.814,911.949 
  906.829,896.589 911.81,880.861 915.736,864.826 918.594,848.55 920.369,832.099 921.057,815.538 920.653,798.934 919.16,782.353 916.583,765.864 912.932,749.532 
  908.224,733.423 902.476,717.602 895.711,702.132 887.957,687.076 879.246,672.494 869.611,658.446 859.092,644.987 847.732,632.172 835.576,620.052 822.673,608.677 
  809.074,598.092 794.836,588.34 780.014,579.46 764.669,571.487 748.863,564.454 732.659,558.39 716.122,553.318 699.319,549.259 682.318,546.229 665.187,544.241 
  647.995,543.303 630.812,543.418 613.705,544.585 596.746,546.801 580.001,550.056 563.538,554.338 547.423,559.628 531.722,565.906 516.497,573.146 501.81,581.319 
  487.72,590.393 474.284,600.33 461.555,611.091 449.586,622.632 438.423,634.908 428.113,647.868 418.697,661.46 410.212,675.629 402.693,690.319 396.17,705.471 
  
  "/>
<polyline clip-path="url(#clip702)" style="stroke:#808080; stroke-linecap:butt; stroke-linejoin:round; stroke-width:4; stroke-opacity:1; fill:none" points="
  396.17,705.471 390.67,721.023 386.213,736.912 382.82,753.076 380.502,769.448 379.27,785.962 379.128,802.553 380.077,819.154 382.113,835.697 385.228,852.116 
  389.41,868.344 394.641,884.318 400.901,899.971 408.163,915.242 416.4,930.068 425.578,944.39 435.66,958.151 446.604,971.294 458.369,983.768 470.905,995.521 
  484.162,1006.51 498.088,1016.68 512.625,1026 527.716,1034.43 543.299,1041.94 559.313,1048.49 575.691,1054.06 592.369,1058.63 609.28,1062.18 626.355,1064.69 
  643.525,1066.15 660.721,1066.56 677.875,1065.92 694.916,1064.23 711.777,1061.49 728.39,1057.72 744.686,1052.93 760.602,1047.15 776.073,1040.38 791.037,1032.67 
  805.432,1024.04 819.203,1014.53 832.292,1004.18 844.647,993.023 856.219,981.109 866.96,968.485 876.828,955.202 885.783,941.314 893.789,926.877 900.814,911.949 
  906.829,896.589 911.81,880.861 915.736,864.826 918.594,848.55 920.369,832.099 921.057,815.538 920.653,798.934 919.16,782.353 916.583,765.864 912.932,749.532 
  908.224,733.423 902.476,717.602 895.711,702.132 887.957,687.076 879.246,672.494 869.611,658.446 859.092,644.987 847.732,632.172 835.576,620.052 822.673,608.677 
  809.074,598.092 794.836,588.34 780.014,579.46 764.669,571.487 748.863,564.454 732.659,558.39 716.122,553.318 699.319,549.259 682.318,546.229 665.187,544.241 
  647.995,543.303 630.812,543.418 613.705,544.585 596.746,546.801 580.001,550.056 563.538,554.338 547.423,559.628 531.722,565.906 516.497,573.146 501.81,581.319 
  487.72,590.393 474.284,600.33 461.555,611.091 449.586,622.632 438.423,634.908 428.113,647.868 418.697,661.46 410.212,675.629 402.693,690.319 396.17,705.471 
  
  "/>
<polyline clip-path="url(#clip702)" style="stroke:#808080; stroke-linecap:butt; stroke-linejoin:round; stroke-width:4; stroke-opacity:1; fill:none" points="
  300.962,668.187 293.398,689.571 287.271,711.419 282.605,733.643 279.418,756.155 277.724,778.863 277.529,801.675 278.834,824.501 281.633,847.247 285.917,869.823 
  291.666,892.138 298.859,914.101 307.466,935.625 317.452,956.622 328.778,977.008 341.397,996.701 355.26,1015.62 370.309,1033.69 386.485,1050.85 403.722,1067.01 
  421.951,1082.11 441.098,1096.1 461.087,1108.92 481.837,1120.51 503.264,1130.83 525.282,1139.84 547.803,1147.5 570.736,1153.78 593.988,1158.66 617.465,1162.11 
  641.074,1164.12 664.719,1164.69 688.305,1163.8 711.737,1161.48 734.921,1157.71 757.763,1152.53 780.172,1145.95 802.056,1137.99 823.328,1128.69 843.903,1118.09 
  863.697,1106.23 882.631,1093.15 900.629,1078.91 917.617,1063.57 933.528,1047.19 948.298,1029.83 961.867,1011.57 974.18,992.471 985.188,972.62 994.847,952.094 
  1003.12,930.975 1009.97,909.348 1015.37,887.3 1019.29,864.921 1021.74,842.3 1022.68,819.528 1022.13,796.698 1020.07,773.9 1016.53,751.228 1011.51,728.771 
  1005.04,706.621 997.131,684.867 987.83,663.596 977.169,642.893 965.19,622.844 951.943,603.527 937.48,585.021 921.859,567.401 905.145,550.736 887.403,535.096 
  868.705,520.541 849.127,507.132 828.747,494.921 807.648,483.959 785.914,474.289 763.634,465.95 740.895,458.976 717.792,453.395 694.415,449.23 670.86,446.496 
  647.221,445.206 623.594,445.363 600.073,446.969 576.753,450.016 553.728,454.492 531.092,460.379 508.934,467.653 487.345,476.285 466.411,486.24 446.216,497.478 
  426.843,509.954 408.368,523.618 390.866,538.415 374.408,554.284 359.06,571.163 344.883,588.982 331.936,607.671 320.269,627.155 309.931,647.354 300.962,668.187 
  
  "/>
<polyline clip-path="url(#clip702)" style="stroke:#808080; stroke-linecap:butt; stroke-linejoin:round; stroke-width:4; stroke-opacity:1; fill:none" points="
  205.753,630.903 196.127,658.119 188.329,685.925 182.39,714.211 178.334,742.862 176.177,771.763 175.929,800.797 177.59,829.848 181.153,858.798 186.605,887.531 
  193.923,915.931 203.077,943.885 214.031,971.278 226.741,998.002 241.156,1023.95 257.217,1049.01 274.86,1073.09 294.013,1096.09 314.6,1117.92 336.539,1138.49 
  359.739,1157.72 384.109,1175.52 409.549,1191.83 435.958,1206.59 463.229,1219.72 491.252,1231.19 519.915,1240.94 549.102,1248.93 578.695,1255.14 608.576,1259.53 
  638.624,1262.09 668.717,1262.81 698.736,1261.69 728.559,1258.73 758.065,1253.94 787.137,1247.34 815.657,1238.96 843.51,1228.83 870.583,1217 896.769,1203.5 
  921.962,1188.41 946.06,1171.76 968.966,1153.64 990.587,1134.12 1010.84,1113.27 1029.64,1091.18 1046.9,1067.93 1062.58,1043.63 1076.59,1018.36 1088.88,992.239 
  1099.41,965.36 1108.12,937.835 1114.99,909.775 1119.99,881.292 1123.1,852.501 1124.3,823.519 1123.6,794.462 1120.98,765.447 1116.47,736.591 1110.09,708.01 
  1101.85,679.819 1091.79,652.132 1079.95,625.059 1066.38,598.711 1051.13,573.193 1034.27,548.608 1015.87,525.056 995.987,502.629 974.713,481.42 952.132,461.514 
  928.335,442.99 903.418,425.924 877.48,410.383 850.627,396.431 822.966,384.124 794.608,373.511 765.669,364.635 736.264,357.532 706.512,352.23 676.533,348.751 
  646.447,347.108 616.375,347.309 586.44,349.353 556.76,353.231 527.456,358.927 498.646,366.42 470.446,375.678 442.968,386.664 416.325,399.334 390.623,413.637 
  365.965,429.516 342.452,446.906 320.177,465.738 299.23,485.936 279.696,507.417 261.653,530.097 245.175,553.883 230.326,578.68 217.168,604.388 205.753,630.903 
  
  "/>
<polyline clip-path="url(#clip702)" style="stroke:#ac8d18; stroke-linecap:butt; stroke-linejoin:round; stroke-width:4; stroke-opacity:1; fill:none" points="
  650.06,804.895 542.65,1079.18 
  "/>
<polyline clip-path="url(#clip702)" style="stroke:#00a9ad; stroke-linecap:butt; stroke-linejoin:round; stroke-width:4; stroke-opacity:1; fill:none" points="
  650.06,804.895 348.287,686.72 
  "/>
<path clip-path="url(#clip700)" d="
M1347.48 1486.45 L2352.76 1486.45 L2352.76 123.472 L1347.48 123.472  Z
  " fill="#ffffff" fill-rule="evenodd" fill-opacity="1"/>
<defs>
  <clipPath id="clip703">
    <rect x="1347" y="123" width="1006" height="1364"/>
  </clipPath>
</defs>
<polyline clip-path="url(#clip703)" style="stroke:#000000; stroke-linecap:butt; stroke-linejoin:round; stroke-width:2; stroke-opacity:0.1; fill:none" points="
  1353.68,1486.45 1353.68,123.472 
  "/>
<polyline clip-path="url(#clip703)" style="stroke:#000000; stroke-linecap:butt; stroke-linejoin:round; stroke-width:2; stroke-opacity:0.1; fill:none" points="
  1519.17,1486.45 1519.17,123.472 
  "/>
<polyline clip-path="url(#clip703)" style="stroke:#000000; stroke-linecap:butt; stroke-linejoin:round; stroke-width:2; stroke-opacity:0.1; fill:none" points="
  1684.66,1486.45 1684.66,123.472 
  "/>
<polyline clip-path="url(#clip703)" style="stroke:#000000; stroke-linecap:butt; stroke-linejoin:round; stroke-width:2; stroke-opacity:0.1; fill:none" points="
  1850.15,1486.45 1850.15,123.472 
  "/>
<polyline clip-path="url(#clip703)" style="stroke:#000000; stroke-linecap:butt; stroke-linejoin:round; stroke-width:2; stroke-opacity:0.1; fill:none" points="
  2015.64,1486.45 2015.64,123.472 
  "/>
<polyline clip-path="url(#clip703)" style="stroke:#000000; stroke-linecap:butt; stroke-linejoin:round; stroke-width:2; stroke-opacity:0.1; fill:none" points="
  2181.13,1486.45 2181.13,123.472 
  "/>
<polyline clip-path="url(#clip703)" style="stroke:#000000; stroke-linecap:butt; stroke-linejoin:round; stroke-width:2; stroke-opacity:0.1; fill:none" points="
  2346.62,1486.45 2346.62,123.472 
  "/>
<polyline clip-path="url(#clip700)" style="stroke:#000000; stroke-linecap:butt; stroke-linejoin:round; stroke-width:4; stroke-opacity:1; fill:none" points="
  1347.48,1486.45 2352.76,1486.45 
  "/>
<polyline clip-path="url(#clip700)" style="stroke:#000000; stroke-linecap:butt; stroke-linejoin:round; stroke-width:4; stroke-opacity:1; fill:none" points="
  1353.68,1486.45 1353.68,1467.55 
  "/>
<polyline clip-path="url(#clip700)" style="stroke:#000000; stroke-linecap:butt; stroke-linejoin:round; stroke-width:4; stroke-opacity:1; fill:none" points="
  1519.17,1486.45 1519.17,1467.55 
  "/>
<polyline clip-path="url(#clip700)" style="stroke:#000000; stroke-linecap:butt; stroke-linejoin:round; stroke-width:4; stroke-opacity:1; fill:none" points="
  1684.66,1486.45 1684.66,1467.55 
  "/>
<polyline clip-path="url(#clip700)" style="stroke:#000000; stroke-linecap:butt; stroke-linejoin:round; stroke-width:4; stroke-opacity:1; fill:none" points="
  1850.15,1486.45 1850.15,1467.55 
  "/>
<polyline clip-path="url(#clip700)" style="stroke:#000000; stroke-linecap:butt; stroke-linejoin:round; stroke-width:4; stroke-opacity:1; fill:none" points="
  2015.64,1486.45 2015.64,1467.55 
  "/>
<polyline clip-path="url(#clip700)" style="stroke:#000000; stroke-linecap:butt; stroke-linejoin:round; stroke-width:4; stroke-opacity:1; fill:none" points="
  2181.13,1486.45 2181.13,1467.55 
  "/>
<polyline clip-path="url(#clip700)" style="stroke:#000000; stroke-linecap:butt; stroke-linejoin:round; stroke-width:4; stroke-opacity:1; fill:none" points="
  2346.62,1486.45 2346.62,1467.55 
  "/>
<path clip-path="url(#clip700)" d="M1300.7 1532.02 L1330.38 1532.02 L1330.38 1535.95 L1300.7 1535.95 L1300.7 1532.02 Z" fill="#000000" fill-rule="evenodd" fill-opacity="1" /><path clip-path="url(#clip700)" d="M1341.28 1544.91 L1348.92 1544.91 L1348.92 1518.55 L1340.61 1520.21 L1340.61 1515.95 L1348.87 1514.29 L1353.55 1514.29 L1353.55 1544.91 L1361.19 1544.91 L1361.19 1548.85 L1341.28 1548.85 L1341.28 1544.91 Z" fill="#000000" fill-rule="evenodd" fill-opacity="1" /><path clip-path="url(#clip700)" d="M1370.63 1542.97 L1375.52 1542.97 L1375.52 1548.85 L1370.63 1548.85 L1370.63 1542.97 Z" fill="#000000" fill-rule="evenodd" fill-opacity="1" /><path clip-path="url(#clip700)" d="M1385.75 1514.29 L1404.1 1514.29 L1404.1 1518.22 L1390.03 1518.22 L1390.03 1526.7 Q1391.05 1526.35 1392.07 1526.19 Q1393.08 1526 1394.1 1526 Q1399.89 1526 1403.27 1529.17 Q1406.65 1532.34 1406.65 1537.76 Q1406.65 1543.34 1403.18 1546.44 Q1399.71 1549.52 1393.39 1549.52 Q1391.21 1549.52 1388.94 1549.15 Q1386.7 1548.78 1384.29 1548.04 L1384.29 1543.34 Q1386.37 1544.47 1388.59 1545.03 Q1390.82 1545.58 1393.29 1545.58 Q1397.3 1545.58 1399.64 1543.48 Q1401.97 1541.37 1401.97 1537.76 Q1401.97 1534.15 1399.64 1532.04 Q1397.3 1529.94 1393.29 1529.94 Q1391.42 1529.94 1389.54 1530.35 Q1387.69 1530.77 1385.75 1531.65 L1385.75 1514.29 Z" fill="#000000" fill-rule="evenodd" fill-opacity="1" /><path clip-path="url(#clip700)" d="M1465.69 1532.02 L1495.37 1532.02 L1495.37 1535.95 L1465.69 1535.95 L1465.69 1532.02 Z" fill="#000000" fill-rule="evenodd" fill-opacity="1" /><path clip-path="url(#clip700)" d="M1506.27 1544.91 L1513.91 1544.91 L1513.91 1518.55 L1505.6 1520.21 L1505.6 1515.95 L1513.87 1514.29 L1518.54 1514.29 L1518.54 1544.91 L1526.18 1544.91 L1526.18 1548.85 L1506.27 1548.85 L1506.27 1544.91 Z" fill="#000000" fill-rule="evenodd" fill-opacity="1" /><path clip-path="url(#clip700)" d="M1535.62 1542.97 L1540.51 1542.97 L1540.51 1548.85 L1535.62 1548.85 L1535.62 1542.97 Z" fill="#000000" fill-rule="evenodd" fill-opacity="1" /><path clip-path="url(#clip700)" d="M1560.69 1517.37 Q1557.08 1517.37 1555.25 1520.93 Q1553.45 1524.47 1553.45 1531.6 Q1553.45 1538.71 1555.25 1542.27 Q1557.08 1545.82 1560.69 1545.82 Q1564.33 1545.82 1566.13 1542.27 Q1567.96 1538.71 1567.96 1531.6 Q1567.96 1524.47 1566.13 1520.93 Q1564.33 1517.37 1560.69 1517.37 M1560.69 1513.66 Q1566.5 1513.66 1569.56 1518.27 Q1572.64 1522.85 1572.64 1531.6 Q1572.64 1540.33 1569.56 1544.94 Q1566.5 1549.52 1560.69 1549.52 Q1554.88 1549.52 1551.8 1544.94 Q1548.75 1540.33 1548.75 1531.6 Q1548.75 1522.85 1551.8 1518.27 Q1554.88 1513.66 1560.69 1513.66 Z" fill="#000000" fill-rule="evenodd" fill-opacity="1" /><path clip-path="url(#clip700)" d="M1631.68 1532.02 L1661.36 1532.02 L1661.36 1535.95 L1631.68 1535.95 L1631.68 1532.02 Z" fill="#000000" fill-rule="evenodd" fill-opacity="1" /><path clip-path="url(#clip700)" d="M1681.45 1517.37 Q1677.84 1517.37 1676.01 1520.93 Q1674.21 1524.47 1674.21 1531.6 Q1674.21 1538.71 1676.01 1542.27 Q1677.84 1545.82 1681.45 1545.82 Q1685.09 1545.82 1686.89 1542.27 Q1688.72 1538.71 1688.72 1531.6 Q1688.72 1524.47 1686.89 1520.93 Q1685.09 1517.37 1681.45 1517.37 M1681.45 1513.66 Q1687.26 1513.66 1690.32 1518.27 Q1693.4 1522.85 1693.4 1531.6 Q1693.4 1540.33 1690.32 1544.94 Q1687.26 1549.52 1681.45 1549.52 Q1675.64 1549.52 1672.56 1544.94 Q1669.51 1540.33 1669.51 1531.6 Q1669.51 1522.85 1672.56 1518.27 Q1675.64 1513.66 1681.45 1513.66 Z" fill="#000000" fill-rule="evenodd" fill-opacity="1" /><path clip-path="url(#clip700)" d="M1701.61 1542.97 L1706.5 1542.97 L1706.5 1548.85 L1701.61 1548.85 L1701.61 1542.97 Z" fill="#000000" fill-rule="evenodd" fill-opacity="1" /><path clip-path="url(#clip700)" d="M1716.73 1514.29 L1735.08 1514.29 L1735.08 1518.22 L1721.01 1518.22 L1721.01 1526.7 Q1722.03 1526.35 1723.05 1526.19 Q1724.07 1526 1725.08 1526 Q1730.87 1526 1734.25 1529.17 Q1737.63 1532.34 1737.63 1537.76 Q1737.63 1543.34 1734.16 1546.44 Q1730.69 1549.52 1724.37 1549.52 Q1722.19 1549.52 1719.92 1549.15 Q1717.68 1548.78 1715.27 1548.04 L1715.27 1543.34 Q1717.35 1544.47 1719.58 1545.03 Q1721.8 1545.58 1724.27 1545.58 Q1728.28 1545.58 1730.62 1543.48 Q1732.96 1541.37 1732.96 1537.76 Q1732.96 1534.15 1730.62 1532.04 Q1728.28 1529.94 1724.27 1529.94 Q1722.4 1529.94 1720.52 1530.35 Q1718.67 1530.77 1716.73 1531.65 L1716.73 1514.29 Z" fill="#000000" fill-rule="evenodd" fill-opacity="1" /><path clip-path="url(#clip700)" d="M1827.53 1517.37 Q1823.92 1517.37 1822.09 1520.93 Q1820.29 1524.47 1820.29 1531.6 Q1820.29 1538.71 1822.09 1542.27 Q1823.92 1545.82 1827.53 1545.82 Q1831.17 1545.82 1832.97 1542.27 Q1834.8 1538.71 1834.8 1531.6 Q1834.8 1524.47 1832.97 1520.93 Q1831.17 1517.37 1827.53 1517.37 M1827.53 1513.66 Q1833.34 1513.66 1836.4 1518.27 Q1839.48 1522.85 1839.48 1531.6 Q1839.48 1540.33 1836.4 1544.94 Q1833.34 1549.52 1827.53 1549.52 Q1821.72 1549.52 1818.64 1544.94 Q1815.59 1540.33 1815.59 1531.6 Q1815.59 1522.85 1818.64 1518.27 Q1821.72 1513.66 1827.53 1513.66 Z" fill="#000000" fill-rule="evenodd" fill-opacity="1" /><path clip-path="url(#clip700)" d="M1847.69 1542.97 L1852.58 1542.97 L1852.58 1548.85 L1847.69 1548.85 L1847.69 1542.97 Z" fill="#000000" fill-rule="evenodd" fill-opacity="1" /><path clip-path="url(#clip700)" d="M1872.76 1517.37 Q1869.15 1517.37 1867.32 1520.93 Q1865.52 1524.47 1865.52 1531.6 Q1865.52 1538.71 1867.32 1542.27 Q1869.15 1545.82 1872.76 1545.82 Q1876.4 1545.82 1878.2 1542.27 Q1880.03 1538.71 1880.03 1531.6 Q1880.03 1524.47 1878.2 1520.93 Q1876.4 1517.37 1872.76 1517.37 M1872.76 1513.66 Q1878.57 1513.66 1881.63 1518.27 Q1884.71 1522.85 1884.71 1531.6 Q1884.71 1540.33 1881.63 1544.94 Q1878.57 1549.52 1872.76 1549.52 Q1866.95 1549.52 1863.87 1544.94 Q1860.82 1540.33 1860.82 1531.6 Q1860.82 1522.85 1863.87 1518.27 Q1866.95 1513.66 1872.76 1513.66 Z" fill="#000000" fill-rule="evenodd" fill-opacity="1" /><path clip-path="url(#clip700)" d="M1993.52 1517.37 Q1989.91 1517.37 1988.08 1520.93 Q1986.28 1524.47 1986.28 1531.6 Q1986.28 1538.71 1988.08 1542.27 Q1989.91 1545.82 1993.52 1545.82 Q1997.15 1545.82 1998.96 1542.27 Q2000.79 1538.71 2000.79 1531.6 Q2000.79 1524.47 1998.96 1520.93 Q1997.15 1517.37 1993.52 1517.37 M1993.52 1513.66 Q1999.33 1513.66 2002.39 1518.27 Q2005.46 1522.85 2005.46 1531.6 Q2005.46 1540.33 2002.39 1544.94 Q1999.33 1549.52 1993.52 1549.52 Q1987.71 1549.52 1984.63 1544.94 Q1981.58 1540.33 1981.58 1531.6 Q1981.58 1522.85 1984.63 1518.27 Q1987.71 1513.66 1993.52 1513.66 Z" fill="#000000" fill-rule="evenodd" fill-opacity="1" /><path clip-path="url(#clip700)" d="M2013.68 1542.97 L2018.57 1542.97 L2018.57 1548.85 L2013.68 1548.85 L2013.68 1542.97 Z" fill="#000000" fill-rule="evenodd" fill-opacity="1" /><path clip-path="url(#clip700)" d="M2028.8 1514.29 L2047.15 1514.29 L2047.15 1518.22 L2033.08 1518.22 L2033.08 1526.7 Q2034.1 1526.35 2035.12 1526.19 Q2036.14 1526 2037.15 1526 Q2042.94 1526 2046.32 1529.17 Q2049.7 1532.34 2049.7 1537.76 Q2049.7 1543.34 2046.23 1546.44 Q2042.76 1549.52 2036.44 1549.52 Q2034.26 1549.52 2031.99 1549.15 Q2029.75 1548.78 2027.34 1548.04 L2027.34 1543.34 Q2029.42 1544.47 2031.65 1545.03 Q2033.87 1545.58 2036.34 1545.58 Q2040.35 1545.58 2042.69 1543.48 Q2045.02 1541.37 2045.02 1537.76 Q2045.02 1534.15 2042.69 1532.04 Q2040.35 1529.94 2036.34 1529.94 Q2034.47 1529.94 2032.59 1530.35 Q2030.74 1530.77 2028.8 1531.65 L2028.8 1514.29 Z" fill="#000000" fill-rule="evenodd" fill-opacity="1" /><path clip-path="url(#clip700)" d="M2148.28 1544.91 L2155.92 1544.91 L2155.92 1518.55 L2147.61 1520.21 L2147.61 1515.95 L2155.87 1514.29 L2160.55 1514.29 L2160.55 1544.91 L2168.19 1544.91 L2168.19 1548.85 L2148.28 1548.85 L2148.28 1544.91 Z" fill="#000000" fill-rule="evenodd" fill-opacity="1" /><path clip-path="url(#clip700)" d="M2177.63 1542.97 L2182.52 1542.97 L2182.52 1548.85 L2177.63 1548.85 L2177.63 1542.97 Z" fill="#000000" fill-rule="evenodd" fill-opacity="1" /><path clip-path="url(#clip700)" d="M2202.7 1517.37 Q2199.09 1517.37 2197.26 1520.93 Q2195.46 1524.47 2195.46 1531.6 Q2195.46 1538.71 2197.26 1542.27 Q2199.09 1545.82 2202.7 1545.82 Q2206.34 1545.82 2208.14 1542.27 Q2209.97 1538.71 2209.97 1531.6 Q2209.97 1524.47 2208.14 1520.93 Q2206.34 1517.37 2202.7 1517.37 M2202.7 1513.66 Q2208.51 1513.66 2211.57 1518.27 Q2214.65 1522.85 2214.65 1531.6 Q2214.65 1540.33 2211.57 1544.94 Q2208.51 1549.52 2202.7 1549.52 Q2196.89 1549.52 2193.81 1544.94 Q2190.76 1540.33 2190.76 1531.6 Q2190.76 1522.85 2193.81 1518.27 Q2196.89 1513.66 2202.7 1513.66 Z" fill="#000000" fill-rule="evenodd" fill-opacity="1" /><path clip-path="url(#clip700)" d="M2314.27 1544.91 L2321.91 1544.91 L2321.91 1518.55 L2313.6 1520.21 L2313.6 1515.95 L2321.86 1514.29 L2326.54 1514.29 L2326.54 1544.91 L2334.18 1544.91 L2334.18 1548.85 L2314.27 1548.85 L2314.27 1544.91 Z" fill="#000000" fill-rule="evenodd" fill-opacity="1" /><path clip-path="url(#clip700)" d="M2343.62 1542.97 L2348.51 1542.97 L2348.51 1548.85 L2343.62 1548.85 L2343.62 1542.97 Z" fill="#000000" fill-rule="evenodd" fill-opacity="1" /><path clip-path="url(#clip700)" d="M2358.74 1514.29 L2377.09 1514.29 L2377.09 1518.22 L2363.02 1518.22 L2363.02 1526.7 Q2364.04 1526.35 2365.06 1526.19 Q2366.08 1526 2367.09 1526 Q2372.88 1526 2376.26 1529.17 Q2379.64 1532.34 2379.64 1537.76 Q2379.64 1543.34 2376.17 1546.44 Q2372.7 1549.52 2366.38 1549.52 Q2364.2 1549.52 2361.93 1549.15 Q2359.69 1548.78 2357.28 1548.04 L2357.28 1543.34 Q2359.36 1544.47 2361.59 1545.03 Q2363.81 1545.58 2366.28 1545.58 Q2370.29 1545.58 2372.63 1543.48 Q2374.96 1541.37 2374.96 1537.76 Q2374.96 1534.15 2372.63 1532.04 Q2370.29 1529.94 2366.28 1529.94 Q2364.41 1529.94 2362.53 1530.35 Q2360.68 1530.77 2358.74 1531.65 L2358.74 1514.29 Z" fill="#000000" fill-rule="evenodd" fill-opacity="1" /><polyline clip-path="url(#clip703)" style="stroke:#000000; stroke-linecap:butt; stroke-linejoin:round; stroke-width:2; stroke-opacity:0.1; fill:none" points="
  1347.48,1466.98 2352.76,1466.98 
  "/>
<polyline clip-path="url(#clip703)" style="stroke:#000000; stroke-linecap:butt; stroke-linejoin:round; stroke-width:2; stroke-opacity:0.1; fill:none" points="
  1347.48,1136 2352.76,1136 
  "/>
<polyline clip-path="url(#clip703)" style="stroke:#000000; stroke-linecap:butt; stroke-linejoin:round; stroke-width:2; stroke-opacity:0.1; fill:none" points="
  1347.48,805.015 2352.76,805.015 
  "/>
<polyline clip-path="url(#clip703)" style="stroke:#000000; stroke-linecap:butt; stroke-linejoin:round; stroke-width:2; stroke-opacity:0.1; fill:none" points="
  1347.48,474.033 2352.76,474.033 
  "/>
<polyline clip-path="url(#clip703)" style="stroke:#000000; stroke-linecap:butt; stroke-linejoin:round; stroke-width:2; stroke-opacity:0.1; fill:none" points="
  1347.48,143.052 2352.76,143.052 
  "/>
<polyline clip-path="url(#clip700)" style="stroke:#000000; stroke-linecap:butt; stroke-linejoin:round; stroke-width:4; stroke-opacity:1; fill:none" points="
  1347.48,1486.45 1347.48,123.472 
  "/>
<polyline clip-path="url(#clip700)" style="stroke:#000000; stroke-linecap:butt; stroke-linejoin:round; stroke-width:4; stroke-opacity:1; fill:none" points="
  1347.48,1466.98 1366.38,1466.98 
  "/>
<polyline clip-path="url(#clip700)" style="stroke:#000000; stroke-linecap:butt; stroke-linejoin:round; stroke-width:4; stroke-opacity:1; fill:none" points="
  1347.48,1136 1366.38,1136 
  "/>
<polyline clip-path="url(#clip700)" style="stroke:#000000; stroke-linecap:butt; stroke-linejoin:round; stroke-width:4; stroke-opacity:1; fill:none" points="
  1347.48,805.015 1366.38,805.015 
  "/>
<polyline clip-path="url(#clip700)" style="stroke:#000000; stroke-linecap:butt; stroke-linejoin:round; stroke-width:4; stroke-opacity:1; fill:none" points="
  1347.48,474.033 1366.38,474.033 
  "/>
<polyline clip-path="url(#clip700)" style="stroke:#000000; stroke-linecap:butt; stroke-linejoin:round; stroke-width:4; stroke-opacity:1; fill:none" points="
  1347.48,143.052 1366.38,143.052 
  "/>
<path clip-path="url(#clip700)" d="M1251.36 1467.43 L1281.04 1467.43 L1281.04 1471.36 L1251.36 1471.36 L1251.36 1467.43 Z" fill="#000000" fill-rule="evenodd" fill-opacity="1" /><path clip-path="url(#clip700)" d="M1295.16 1480.32 L1311.48 1480.32 L1311.48 1484.26 L1289.53 1484.26 L1289.53 1480.32 Q1292.2 1477.57 1296.78 1472.94 Q1301.39 1468.29 1302.57 1466.94 Q1304.81 1464.42 1305.69 1462.68 Q1306.59 1460.92 1306.59 1459.24 Q1306.59 1456.48 1304.65 1454.74 Q1302.73 1453.01 1299.63 1453.01 Q1297.43 1453.01 1294.97 1453.77 Q1292.54 1454.54 1289.77 1456.09 L1289.77 1451.36 Q1292.59 1450.23 1295.04 1449.65 Q1297.5 1449.07 1299.53 1449.07 Q1304.9 1449.07 1308.1 1451.76 Q1311.29 1454.44 1311.29 1458.93 Q1311.29 1461.06 1310.48 1462.99 Q1309.7 1464.88 1307.59 1467.48 Q1307.01 1468.15 1303.91 1471.36 Q1300.81 1474.56 1295.16 1480.32 Z" fill="#000000" fill-rule="evenodd" fill-opacity="1" /><path clip-path="url(#clip700)" d="M1250.99 1136.45 L1280.67 1136.45 L1280.67 1140.38 L1250.99 1140.38 L1250.99 1136.45 Z" fill="#000000" fill-rule="evenodd" fill-opacity="1" /><path clip-path="url(#clip700)" d="M1291.57 1149.34 L1299.21 1149.34 L1299.21 1122.98 L1290.9 1124.64 L1290.9 1120.38 L1299.16 1118.72 L1303.84 1118.72 L1303.84 1149.34 L1311.48 1149.34 L1311.48 1153.28 L1291.57 1153.28 L1291.57 1149.34 Z" fill="#000000" fill-rule="evenodd" fill-opacity="1" /><path clip-path="url(#clip700)" d="M1299.53 790.814 Q1295.92 790.814 1294.09 794.378 Q1292.29 797.92 1292.29 805.05 Q1292.29 812.156 1294.09 815.721 Q1295.92 819.262 1299.53 819.262 Q1303.17 819.262 1304.97 815.721 Q1306.8 812.156 1306.8 805.05 Q1306.8 797.92 1304.97 794.378 Q1303.17 790.814 1299.53 790.814 M1299.53 787.11 Q1305.34 787.11 1308.4 791.716 Q1311.48 796.3 1311.48 805.05 Q1311.48 813.776 1308.4 818.383 Q1305.34 822.966 1299.53 822.966 Q1293.72 822.966 1290.64 818.383 Q1287.59 813.776 1287.59 805.05 Q1287.59 796.3 1290.64 791.716 Q1293.72 787.11 1299.53 787.11 Z" fill="#000000" fill-rule="evenodd" fill-opacity="1" /><path clip-path="url(#clip700)" d="M1291.57 487.378 L1299.21 487.378 L1299.21 461.012 L1290.9 462.679 L1290.9 458.42 L1299.16 456.753 L1303.84 456.753 L1303.84 487.378 L1311.48 487.378 L1311.48 491.313 L1291.57 491.313 L1291.57 487.378 Z" fill="#000000" fill-rule="evenodd" fill-opacity="1" /><path clip-path="url(#clip700)" d="M1295.16 156.396 L1311.48 156.396 L1311.48 160.332 L1289.53 160.332 L1289.53 156.396 Q1292.2 153.642 1296.78 149.012 Q1301.39 144.359 1302.57 143.017 Q1304.81 140.494 1305.69 138.758 Q1306.59 136.998 1306.59 135.309 Q1306.59 132.554 1304.65 130.818 Q1302.73 129.082 1299.63 129.082 Q1297.43 129.082 1294.97 129.846 Q1292.54 130.609 1289.77 132.16 L1289.77 127.438 Q1292.59 126.304 1295.04 125.725 Q1297.5 125.147 1299.53 125.147 Q1304.9 125.147 1308.1 127.832 Q1311.29 130.517 1311.29 135.008 Q1311.29 137.137 1310.48 139.059 Q1309.7 140.957 1307.59 143.549 Q1307.01 144.221 1303.91 147.438 Q1300.81 150.633 1295.16 156.396 Z" fill="#000000" fill-rule="evenodd" fill-opacity="1" /><path clip-path="url(#clip700)" d="M1706.57 27.2059 L1714.27 27.2059 L1714.27 46.0426 L1733.84 27.2059 L1742.91 27.2059 L1725.05 44.3007 L1745.7 72.576 L1736.59 72.576 L1719.82 49.1618 L1714.27 54.3874 L1714.27 72.576 L1706.57 72.576 L1706.57 27.2059 Z" fill="#000000" fill-rule="evenodd" fill-opacity="1" /><path clip-path="url(#clip700)" d="M1756.52 34.9026 L1808.45 34.9026 L1808.45 41.7081 L1756.52 41.7081 L1756.52 34.9026 M1756.52 51.4303 L1808.45 51.4303 L1808.45 58.3168 L1756.52 58.3168 L1756.52 51.4303 Z" fill="#000000" fill-rule="evenodd" fill-opacity="1" /><path clip-path="url(#clip700)" d="M1826.36 71.3202 L1826.36 63.8666 Q1829.44 65.3249 1832.6 66.0946 Q1835.76 66.8642 1838.79 66.8642 Q1846.9 66.8642 1851.15 61.436 Q1855.44 55.9673 1856.05 44.8678 Q1853.7 48.3516 1850.1 50.215 Q1846.49 52.0784 1842.12 52.0784 Q1833.04 52.0784 1827.74 46.6097 Q1822.47 41.1005 1822.47 31.5808 Q1822.47 22.2638 1827.98 16.633 Q1833.49 11.0023 1842.64 11.0023 Q1853.13 11.0023 1858.64 19.0636 Q1864.19 27.0843 1864.19 42.3968 Q1864.19 56.6965 1857.39 65.2439 Q1850.62 73.7508 1839.16 73.7508 Q1836.08 73.7508 1832.92 73.1431 Q1829.76 72.5355 1826.36 71.3202 M1842.64 45.678 Q1848.15 45.678 1851.35 41.9107 Q1854.59 38.1433 1854.59 31.5808 Q1854.59 25.0589 1851.35 21.2916 Q1848.15 17.4837 1842.64 17.4837 Q1837.13 17.4837 1833.89 21.2916 Q1830.69 25.0589 1830.69 31.5808 Q1830.69 38.1433 1833.89 41.9107 Q1837.13 45.678 1842.64 45.678 Z" fill="#000000" fill-rule="evenodd" fill-opacity="1" /><path clip-path="url(#clip700)" d="M1878.9 62.2867 L1887.45 62.2867 L1887.45 72.576 L1878.9 72.576 L1878.9 62.2867 Z" fill="#000000" fill-rule="evenodd" fill-opacity="1" /><path clip-path="url(#clip700)" d="M1927.75 19.2256 L1907.09 51.5113 L1927.75 51.5113 L1927.75 19.2256 M1925.61 12.096 L1935.89 12.096 L1935.89 51.5113 L1944.52 51.5113 L1944.52 58.3168 L1935.89 58.3168 L1935.89 72.576 L1927.75 72.576 L1927.75 58.3168 L1900.45 58.3168 L1900.45 50.4176 L1925.61 12.096 Z" fill="#000000" fill-rule="evenodd" fill-opacity="1" /><path clip-path="url(#clip700)" d="M1965.1 65.6895 L1993.66 65.6895 L1993.66 72.576 L1955.26 72.576 L1955.26 65.6895 Q1959.92 60.8689 1967.94 52.7671 Q1976 44.6248 1978.06 42.2752 Q1981.99 37.8598 1983.53 34.8216 Q1985.11 31.7429 1985.11 28.7857 Q1985.11 23.9651 1981.71 20.927 Q1978.35 17.8888 1972.92 17.8888 Q1969.07 17.8888 1964.78 19.2256 Q1960.52 20.5624 1955.66 23.2765 L1955.66 15.0127 Q1960.61 13.0277 1964.9 12.015 Q1969.19 11.0023 1972.76 11.0023 Q1982.16 11.0023 1987.75 15.7013 Q1993.34 20.4004 1993.34 28.2591 Q1993.34 31.9859 1991.92 35.3482 Q1990.54 38.6699 1986.86 43.2069 Q1985.84 44.3817 1980.41 50.0125 Q1974.99 55.6027 1965.1 65.6895 Z" fill="#000000" fill-rule="evenodd" fill-opacity="1" /><polyline clip-path="url(#clip703)" style="stroke:#808080; stroke-linecap:butt; stroke-linejoin:round; stroke-width:4; stroke-opacity:1; fill:none" points="
  2051.94,443.515 2044.06,440.072 2035.41,438.1 2026,437.605 2015.89,438.589 2005.11,441.048 1993.71,444.974 1981.73,450.349 1969.22,457.152 1956.23,465.356 
  1942.81,474.927 1929.02,485.828 1914.91,498.014 1900.54,511.436 1885.97,526.04 1871.26,541.768 1856.45,558.555 1841.63,576.335 1826.84,595.036 1812.14,614.582 
  1797.59,634.895 1783.26,655.894 1769.19,677.492 1755.46,699.604 1742.1,722.141 1729.18,745.011 1716.74,768.123 1704.85,791.383 1693.53,814.698 1682.85,837.975 
  1672.84,861.118 1663.55,884.036 1655.01,906.635 1647.25,928.826 1640.31,950.517 1634.21,971.623 1628.99,992.058 1624.65,1011.74 1621.22,1030.59 1618.72,1048.53 
  1617.15,1065.49 1616.51,1081.4 1616.82,1096.2 1618.06,1109.83 1620.24,1122.23 1623.35,1133.35 1627.36,1143.15 1632.28,1151.59 1638.07,1158.63 1644.72,1164.25 
  1652.19,1168.42 1660.46,1171.13 1669.5,1172.36 1679.26,1172.12 1689.71,1170.4 1700.81,1167.2 1712.51,1162.55 1724.76,1156.46 1737.52,1148.95 1750.73,1140.06 
  1764.34,1129.82 1778.29,1118.27 1792.54,1105.46 1807.02,1091.44 1821.67,1076.26 1836.43,1060 1851.25,1042.7 1866.07,1024.45 1880.82,1005.32 1895.45,985.382 
  1909.9,964.716 1924.11,943.407 1938.01,921.54 1951.57,899.205 1964.71,876.49 1977.4,853.487 1989.57,830.289 2001.18,806.99 2012.19,783.682 2022.54,760.461 
  2032.19,737.419 2041.11,714.649 2049.27,692.242 2056.62,670.29 2063.14,648.881 2068.81,628.1 2073.59,608.031 2077.47,588.756 2080.44,570.351 2082.48,552.892 
  2083.59,536.447 2083.75,521.084 2082.97,506.865 2081.26,493.846 2078.62,482.079 2075.05,471.614 2070.58,462.49 2065.23,454.746 2059,448.412 2051.94,443.515 
  
  "/>
<polyline clip-path="url(#clip703)" style="stroke:#808080; stroke-linecap:butt; stroke-linejoin:round; stroke-width:4; stroke-opacity:1; fill:none" points="
  2051.94,443.515 2044.06,440.072 2035.41,438.1 2026,437.605 2015.89,438.589 2005.11,441.048 1993.71,444.974 1981.73,450.349 1969.22,457.152 1956.23,465.356 
  1942.81,474.927 1929.02,485.828 1914.91,498.014 1900.54,511.436 1885.97,526.04 1871.26,541.768 1856.45,558.555 1841.63,576.335 1826.84,595.036 1812.14,614.582 
  1797.59,634.895 1783.26,655.894 1769.19,677.492 1755.46,699.604 1742.1,722.141 1729.18,745.011 1716.74,768.123 1704.85,791.383 1693.53,814.698 1682.85,837.975 
  1672.84,861.118 1663.55,884.036 1655.01,906.635 1647.25,928.826 1640.31,950.517 1634.21,971.623 1628.99,992.058 1624.65,1011.74 1621.22,1030.59 1618.72,1048.53 
  1617.15,1065.49 1616.51,1081.4 1616.82,1096.2 1618.06,1109.83 1620.24,1122.23 1623.35,1133.35 1627.36,1143.15 1632.28,1151.59 1638.07,1158.63 1644.72,1164.25 
  1652.19,1168.42 1660.46,1171.13 1669.5,1172.36 1679.26,1172.12 1689.71,1170.4 1700.81,1167.2 1712.51,1162.55 1724.76,1156.46 1737.52,1148.95 1750.73,1140.06 
  1764.34,1129.82 1778.29,1118.27 1792.54,1105.46 1807.02,1091.44 1821.67,1076.26 1836.43,1060 1851.25,1042.7 1866.07,1024.45 1880.82,1005.32 1895.45,985.382 
  1909.9,964.716 1924.11,943.407 1938.01,921.54 1951.57,899.205 1964.71,876.49 1977.4,853.487 1989.57,830.289 2001.18,806.99 2012.19,783.682 2022.54,760.461 
  2032.19,737.419 2041.11,714.649 2049.27,692.242 2056.62,670.29 2063.14,648.881 2068.81,628.1 2073.59,608.031 2077.47,588.756 2080.44,570.351 2082.48,552.892 
  2083.59,536.447 2083.75,521.084 2082.97,506.865 2081.26,493.846 2078.62,482.079 2075.05,471.614 2070.58,462.49 2065.23,454.746 2059,448.412 2051.94,443.515 
  
  "/>
<polyline clip-path="url(#clip703)" style="stroke:#808080; stroke-linecap:butt; stroke-linejoin:round; stroke-width:4; stroke-opacity:1; fill:none" points="
  2127.61,307.952 2116.78,303.219 2104.88,300.507 2091.95,299.826 2078.05,301.179 2063.22,304.561 2047.55,309.958 2031.07,317.349 2013.87,326.703 1996.01,337.983 
  1977.56,351.144 1958.6,366.133 1939.2,382.888 1919.44,401.344 1899.41,421.424 1879.17,443.05 1858.82,466.133 1838.43,490.58 1818.09,516.294 1797.88,543.17 
  1777.88,571.101 1758.18,599.973 1738.84,629.671 1719.95,660.075 1701.58,691.063 1683.81,722.509 1666.72,754.288 1650.36,786.271 1634.8,818.33 1620.11,850.335 
  1606.35,882.157 1593.57,913.669 1581.83,944.743 1571.16,975.255 1561.62,1005.08 1553.24,1034.1 1546.05,1062.2 1540.09,1089.26 1535.38,1115.18 1531.93,1139.85 
  1529.77,1163.17 1528.9,1185.05 1529.32,1205.4 1531.03,1224.13 1534.02,1241.18 1538.29,1256.47 1543.82,1269.95 1550.58,1281.55 1558.54,1291.23 1567.68,1298.96 
  1577.96,1304.7 1589.33,1308.42 1601.76,1310.12 1615.18,1309.78 1629.55,1307.41 1644.81,1303.02 1660.89,1296.62 1677.74,1288.25 1695.28,1277.92 1713.44,1265.7 
  1732.16,1251.62 1751.35,1235.74 1770.94,1218.12 1790.84,1198.84 1810.99,1177.98 1831.29,1155.61 1851.67,1131.84 1872.04,1106.74 1892.33,1080.44 1912.44,1053.02 
  1932.31,1024.6 1951.84,995.303 1970.96,965.237 1989.6,934.526 2007.68,903.293 2025.12,871.664 2041.86,839.767 2057.82,807.731 2072.95,775.683 2087.18,743.753 
  2100.46,712.07 2112.73,680.761 2123.94,649.953 2134.05,619.769 2143.02,590.33 2150.8,561.757 2157.38,534.163 2162.72,507.659 2166.8,482.353 2169.6,458.346 
  2171.12,435.735 2171.35,414.611 2170.28,395.059 2167.93,377.157 2164.29,360.979 2159.39,346.588 2153.25,334.044 2145.88,323.395 2137.33,314.687 2127.61,307.952 
  
  "/>
<polyline clip-path="url(#clip703)" style="stroke:#808080; stroke-linecap:butt; stroke-linejoin:round; stroke-width:4; stroke-opacity:1; fill:none" points="
  2203.29,172.39 2189.5,166.366 2174.35,162.914 2157.89,162.047 2140.2,163.769 2121.34,168.074 2101.38,174.943 2080.42,184.349 2058.52,196.254 2035.79,210.611 
  2012.31,227.361 1988.17,246.438 1963.49,267.763 1938.34,291.252 1912.84,316.809 1887.09,344.332 1861.18,373.71 1835.24,404.825 1809.35,437.552 1783.63,471.758 
  1758.18,507.306 1733.09,544.053 1708.48,581.85 1684.44,620.546 1661.06,659.985 1638.45,700.008 1616.69,740.454 1595.87,781.159 1576.07,821.961 1557.38,862.695 
  1539.86,903.196 1523.6,943.302 1508.65,982.851 1495.07,1021.68 1482.93,1059.64 1472.26,1096.58 1463.12,1132.34 1455.53,1166.78 1449.53,1199.77 1445.15,1231.17 
  1442.39,1260.85 1441.28,1288.69 1441.82,1314.59 1444,1338.44 1447.81,1360.14 1453.24,1379.6 1460.28,1396.75 1468.88,1411.51 1479.02,1423.84 1490.65,1433.67 
  1503.73,1440.97 1518.2,1445.71 1534.01,1447.87 1551.1,1447.45 1569.39,1444.43 1588.8,1438.84 1609.28,1430.7 1630.72,1420.04 1653.04,1406.9 1676.16,1391.34 
  1699.98,1373.42 1724.4,1353.21 1749.33,1330.79 1774.67,1306.25 1800.31,1279.7 1826.15,1251.23 1852.08,1220.97 1878.01,1189.03 1903.83,1155.55 1929.43,1120.66 
  1954.71,1084.49 1979.57,1047.2 2003.91,1008.93 2027.63,969.847 2050.64,930.096 2072.84,889.842 2094.14,849.245 2114.46,808.471 2133.71,767.683 2151.83,727.045 
  2168.72,686.721 2184.34,646.874 2198.61,607.663 2211.48,569.247 2222.89,531.78 2232.8,495.414 2241.17,460.294 2247.96,426.562 2253.16,394.354 2256.73,363.8 
  2258.66,335.022 2258.95,308.137 2257.59,283.252 2254.6,260.469 2249.97,239.878 2243.73,221.563 2235.91,205.597 2226.54,192.045 2215.65,180.961 2203.29,172.39 
  
  "/>
<polyline clip-path="url(#clip703)" style="stroke:#ac8d18; stroke-linecap:butt; stroke-linejoin:round; stroke-width:4; stroke-opacity:1; fill:none" points="
  1850.15,805.015 1802.15,778.219 
  "/>
<polyline clip-path="url(#clip703)" style="stroke:#00a9ad; stroke-linecap:butt; stroke-linejoin:round; stroke-width:4; stroke-opacity:1; fill:none" points="
  1850.15,805.015 2102.56,352.833 
  "/>
</svg>
