<?xml version="1.0" encoding="utf-8" standalone="no"?>
<!DOCTYPE svg PUBLIC "-//W3C//DTD SVG 1.1//EN"
  "http://www.w3.org/Graphics/SVG/1.1/DTD/svg11.dtd">
<svg height="432pt" version="1.1" viewBox="0 0 432 432" width="432pt" xmlns="http://www.w3.org/2000/svg" xmlns:xlink="http://www.w3.org/1999/xlink">
 <metadata>
  <rdf:RDF xmlns:cc="http://creativecommons.org/ns#" xmlns:dc="http://purl.org/dc/elements/1.1/" xmlns:rdf="http://www.w3.org/1999/02/22-rdf-syntax-ns#">
   <cc:Work>
    <dc:type rdf:resource="http://purl.org/dc/dcmitype/StillImage"/>
    <dc:date>2022-07-06T11:39:48.725046</dc:date>
    <dc:format>image/svg+xml</dc:format>
    <dc:creator>
     <cc:Agent>
      <dc:title>Matplotlib v3.4.1, https://matplotlib.org/</dc:title>
     </cc:Agent>
    </dc:creator>
   </cc:Work>
  </rdf:RDF>
 </metadata>
 <defs>
  <style type="text/css">*{stroke-linecap:butt;stroke-linejoin:round;}</style>
 </defs>
 <g id="figure_1">
  <g id="patch_1">
   <path d="M 0 432 
L 432 432 
L 432 0 
L 0 0 
z
" style="fill:#ffffff;"/>
  </g>
  <g id="axes_1">
   <g id="patch_2">
    <path d="M 54 378 
L 388.8 378 
L 388.8 51.84 
L 54 51.84 
z
" style="fill:#eaeaf2;"/>
   </g>
   <g id="matplotlib.axis_1">
    <g id="xtick_1">
     <g id="line2d_1">
      <path clip-path="url(#p852cb5ea0e)" d="M 69.199217 378 
L 69.199217 51.84 
" style="fill:none;stroke:#ffffff;stroke-linecap:round;"/>
     </g>
     <g id="line2d_2"/>
     <g id="text_1">
      <!-- −1 -->
      <g style="fill:#262626;" transform="translate(63.498436 392.157812)scale(0.1 -0.1)">
       <defs>
        <path d="M 3381 1997 
L 356 1997 
L 356 2522 
L 3381 2522 
L 3381 1997 
z
" id="ArialMT-2212" transform="scale(0.015625)"/>
        <path d="M 2384 0 
L 1822 0 
L 1822 3584 
Q 1619 3391 1289 3197 
Q 959 3003 697 2906 
L 697 3450 
Q 1169 3672 1522 3987 
Q 1875 4303 2022 4600 
L 2384 4600 
L 2384 0 
z
" id="ArialMT-31" transform="scale(0.015625)"/>
       </defs>
       <use xlink:href="#ArialMT-2212"/>
       <use x="58.398438" xlink:href="#ArialMT-31"/>
      </g>
     </g>
    </g>
    <g id="xtick_2">
     <g id="line2d_3">
      <path clip-path="url(#p852cb5ea0e)" d="M 221.390518 378 
L 221.390518 51.84 
" style="fill:none;stroke:#ffffff;stroke-linecap:round;"/>
     </g>
     <g id="line2d_4"/>
     <g id="text_2">
      <!-- 0 -->
      <g style="fill:#262626;" transform="translate(218.610049 392.157812)scale(0.1 -0.1)">
       <defs>
        <path d="M 266 2259 
Q 266 3072 433 3567 
Q 600 4063 929 4331 
Q 1259 4600 1759 4600 
Q 2128 4600 2406 4451 
Q 2684 4303 2865 4023 
Q 3047 3744 3150 3342 
Q 3253 2941 3253 2259 
Q 3253 1453 3087 958 
Q 2922 463 2592 192 
Q 2263 -78 1759 -78 
Q 1097 -78 719 397 
Q 266 969 266 2259 
z
M 844 2259 
Q 844 1131 1108 757 
Q 1372 384 1759 384 
Q 2147 384 2411 759 
Q 2675 1134 2675 2259 
Q 2675 3391 2411 3762 
Q 2147 4134 1753 4134 
Q 1366 4134 1134 3806 
Q 844 3388 844 2259 
z
" id="ArialMT-30" transform="scale(0.015625)"/>
       </defs>
       <use xlink:href="#ArialMT-30"/>
      </g>
     </g>
    </g>
    <g id="xtick_3">
     <g id="line2d_5">
      <path clip-path="url(#p852cb5ea0e)" d="M 373.581818 378 
L 373.581818 51.84 
" style="fill:none;stroke:#ffffff;stroke-linecap:round;"/>
     </g>
     <g id="line2d_6"/>
     <g id="text_3">
      <!-- 1 -->
      <g style="fill:#262626;" transform="translate(370.801349 392.157812)scale(0.1 -0.1)">
       <use xlink:href="#ArialMT-31"/>
      </g>
     </g>
    </g>
   </g>
   <g id="matplotlib.axis_2">
    <g id="ytick_1">
     <g id="line2d_7">
      <path clip-path="url(#p852cb5ea0e)" d="M 54 367.1113 
L 388.8 367.1113 
" style="fill:none;stroke:#ffffff;stroke-linecap:round;"/>
     </g>
     <g id="line2d_8"/>
     <g id="text_4">
      <!-- −1 -->
      <g style="fill:#262626;" transform="translate(35.598438 370.690207)scale(0.1 -0.1)">
       <use xlink:href="#ArialMT-2212"/>
       <use x="58.398438" xlink:href="#ArialMT-31"/>
      </g>
     </g>
    </g>
    <g id="ytick_2">
     <g id="line2d_9">
      <path clip-path="url(#p852cb5ea0e)" d="M 54 214.92 
L 388.8 214.92 
" style="fill:none;stroke:#ffffff;stroke-linecap:round;"/>
     </g>
     <g id="line2d_10"/>
     <g id="text_5">
      <!-- 0 -->
      <g style="fill:#262626;" transform="translate(41.439062 218.498906)scale(0.1 -0.1)">
       <use xlink:href="#ArialMT-30"/>
      </g>
     </g>
    </g>
    <g id="ytick_3">
     <g id="line2d_11">
      <path clip-path="url(#p852cb5ea0e)" d="M 54 62.7287 
L 388.8 62.7287 
" style="fill:none;stroke:#ffffff;stroke-linecap:round;"/>
     </g>
     <g id="line2d_12"/>
     <g id="text_6">
      <!-- 1 -->
      <g style="fill:#262626;" transform="translate(41.439062 66.307606)scale(0.1 -0.1)">
       <use xlink:href="#ArialMT-31"/>
      </g>
     </g>
    </g>
   </g>
   <g id="PathCollection_1">
    <defs>
     <path d="M -1.581139 1.581139 
L 1.581139 -1.581139 
M -1.581139 -1.581139 
L 1.581139 1.581139 
" id="m653d2ac2ed" style="stroke:#000000;stroke-width:1.75;"/>
    </defs>
    <g clip-path="url(#p852cb5ea0e)">
     <use style="stroke:#000000;stroke-width:1.75;" x="264.873746" xlink:href="#m653d2ac2ed" y="214.92"/>
    </g>
   </g>
   <g id="PathCollection_2">
    <g clip-path="url(#p852cb5ea0e)">
     <use style="stroke:#000000;stroke-width:1.75;" x="250.379337" xlink:href="#m653d2ac2ed" y="214.92"/>
    </g>
   </g>
   <g id="PathCollection_3">
    <g clip-path="url(#p852cb5ea0e)">
     <use style="stroke:#000000;stroke-width:1.75;" x="291.632656" xlink:href="#m653d2ac2ed" y="214.92"/>
    </g>
   </g>
   <g id="PathCollection_4">
    <g clip-path="url(#p852cb5ea0e)">
     <use style="stroke:#000000;stroke-width:1.75;" x="241.241557" xlink:href="#m653d2ac2ed" y="214.92"/>
    </g>
   </g>
   <g id="patch_3">
    <path clip-path="url(#p852cb5ea0e)" d="M 264.873746 323.628072 
C 293.703464 323.628072 321.356272 312.173904 341.741961 291.788215 
C 362.12765 271.402526 373.581818 243.749718 373.581818 214.92 
C 373.581818 186.090282 362.12765 158.437474 341.741961 138.051785 
C 321.356272 117.666096 293.703464 106.211928 264.873746 106.211928 
C 236.044029 106.211928 208.391221 117.666096 188.005532 138.051785 
C 167.619843 158.437474 156.165675 186.090282 156.165675 214.92 
C 156.165675 243.749718 167.619843 271.402526 188.005532 291.788215 
C 208.391221 312.173904 236.044029 323.628072 264.873746 323.628072 
z
" style="fill:#4c72b0;opacity:0.2;"/>
   </g>
   <g id="patch_4">
    <path clip-path="url(#p852cb5ea0e)" d="M 250.379337 338.122481 
C 283.053017 338.122481 314.392866 325.141091 337.496647 302.03731 
C 360.600428 278.933529 373.581818 247.59368 373.581818 214.92 
C 373.581818 182.24632 360.600428 150.906471 337.496647 127.80269 
C 314.392866 104.698909 283.053017 91.717519 250.379337 91.717519 
C 217.705657 91.717519 186.365807 104.698909 163.262027 127.80269 
C 140.158246 150.906471 127.176855 182.24632 127.176855 214.92 
C 127.176855 247.59368 140.158246 278.933529 163.262027 302.03731 
C 186.365807 325.141091 217.705657 338.122481 250.379337 338.122481 
z
" style="fill:#4c72b0;opacity:0.2;"/>
   </g>
   <g id="patch_5">
    <path clip-path="url(#p852cb5ea0e)" d="M 291.632656 296.869162 
C 313.365828 296.869162 334.211791 288.234481 349.579464 272.866808 
C 364.947138 257.499135 373.581818 236.653172 373.581818 214.92 
C 373.581818 193.186828 364.947138 172.340865 349.579464 156.973192 
C 334.211791 141.605519 313.365828 132.970838 291.632656 132.970838 
C 269.899485 132.970838 249.053521 141.605519 233.685848 156.973192 
C 218.318175 172.340865 209.683495 193.186828 209.683495 214.92 
C 209.683495 236.653172 218.318175 257.499135 233.685848 272.866808 
C 249.053521 288.234481 269.899485 296.869162 291.632656 296.869162 
z
" style="fill:#4c72b0;opacity:0.2;"/>
   </g>
   <g id="patch_6">
    <path clip-path="url(#p852cb5ea0e)" d="M 241.241557 347.260261 
C 276.338604 347.260261 310.002893 333.316057 334.820253 308.498696 
C 359.637613 283.681336 373.581818 250.017048 373.581818 214.92 
C 373.581818 179.822952 359.637613 146.158664 334.820253 121.341304 
C 310.002893 96.523943 276.338604 82.579739 241.241557 82.579739 
C 206.144509 82.579739 172.480221 96.523943 147.662861 121.341304 
C 122.8455 146.158664 108.901296 179.822952 108.901296 214.92 
C 108.901296 250.017048 122.8455 283.681336 147.662861 308.498696 
C 172.480221 333.316057 206.144509 347.260261 241.241557 347.260261 
z
" style="fill:#4c72b0;opacity:0.2;"/>
   </g>
   <g id="line2d_13">
    <path clip-path="url(#p852cb5ea0e)" d="M 373.581818 214.92 
L 373.505964 210.115541 
L 373.278479 205.315872 
L 372.899588 200.525776 
L 372.369669 195.750029 
L 371.689251 190.99339 
L 370.859012 186.260603 
L 369.87978 181.556383 
L 368.75253 176.885421 
L 367.478387 172.252373 
L 366.05862 167.661857 
L 364.494645 163.118449 
L 362.78802 158.626677 
L 360.940448 154.19102 
L 358.953769 149.8159 
L 356.829964 145.505676 
L 354.57115 141.264646 
L 352.179578 137.097037 
L 349.657634 133.007004 
L 347.007829 128.998623 
L 344.232807 125.075891 
L 341.335333 121.242717 
L 338.318295 117.502923 
L 335.184701 113.860237 
L 331.937675 110.318289 
L 328.580453 106.88061 
L 325.116381 103.550627 
L 321.548913 100.33166 
L 317.881606 97.226917 
L 314.118113 94.239492 
L 310.262188 91.372365 
L 306.317674 88.628393 
L 302.288503 86.010311 
L 298.17869 83.520729 
L 293.992334 81.162128 
L 289.733606 78.936861 
L 285.406753 76.847144 
L 281.016087 74.895061 
L 276.565984 73.082558 
L 272.060882 71.411442 
L 267.50527 69.883379 
L 262.90369 68.499891 
L 258.260729 67.262357 
L 253.581015 66.172012 
L 248.869213 65.229943 
L 244.130019 64.437087 
L 239.368158 63.794236 
L 234.588377 63.302031 
L 229.795439 62.960962 
L 224.994124 62.771369 
L 220.189216 62.733441 
L 215.385506 62.847216 
L 210.587781 63.11258 
L 205.800825 63.529269 
L 201.02941 64.096868 
L 196.27829 64.81481 
L 191.552203 65.682381 
L 186.85586 66.698715 
L 182.193941 67.862799 
L 177.571095 69.173473 
L 172.991928 70.62943 
L 168.461007 72.22922 
L 163.982846 73.971246 
L 159.561911 75.853773 
L 155.202608 77.874925 
L 150.909283 80.032686 
L 146.686214 82.324906 
L 142.537613 84.749299 
L 138.467614 87.303449 
L 134.480274 89.984811 
L 130.579568 92.79071 
L 126.769385 95.718351 
L 123.053522 98.764814 
L 119.435684 101.927063 
L 115.919476 105.201946 
L 112.508404 108.586199 
L 109.205868 112.076447 
L 106.01516 115.669212 
L 102.939461 119.360913 
L 99.981837 123.147869 
L 97.145235 127.026305 
L 94.432484 130.992355 
L 91.846287 135.042067 
L 89.389223 139.171402 
L 87.06374 143.376246 
L 84.872157 147.652405 
L 82.816659 151.995619 
L 80.899295 156.401557 
L 79.121975 160.865827 
L 77.486471 165.38398 
L 75.994414 169.951511 
L 74.647291 174.563868 
L 73.446445 179.216453 
L 72.393073 183.904628 
L 71.488224 188.62372 
L 70.732802 193.369024 
L 70.127558 198.135811 
L 69.673097 202.919329 
L 69.369871 207.714809 
L 69.218182 212.517471 
L 69.218182 217.322529 
L 69.369871 222.125191 
L 69.673097 226.920671 
L 70.127558 231.704189 
L 70.732802 236.470976 
L 71.488224 241.21628 
L 72.393073 245.935372 
L 73.446445 250.623547 
L 74.647291 255.276132 
L 75.994414 259.888489 
L 77.486471 264.45602 
L 79.121975 268.974173 
L 80.899295 273.438443 
L 82.816659 277.844381 
L 84.872157 282.187595 
L 87.06374 286.463754 
L 89.389223 290.668598 
L 91.846287 294.797933 
L 94.432484 298.847645 
L 97.145235 302.813695 
L 99.981837 306.692131 
L 102.939461 310.479087 
L 106.01516 314.170788 
L 109.205868 317.763553 
L 112.508404 321.253801 
L 115.919476 324.638054 
L 119.435684 327.912937 
L 123.053522 331.075186 
L 126.769385 334.121649 
L 130.579568 337.04929 
L 134.480274 339.855189 
L 138.467614 342.536551 
L 142.537613 345.090701 
L 146.686214 347.515094 
L 150.909283 349.807314 
L 155.202608 351.965075 
L 159.561911 353.986227 
L 163.982846 355.868754 
L 168.461007 357.61078 
L 172.991928 359.21057 
L 177.571095 360.666527 
L 182.193941 361.977201 
L 186.85586 363.141285 
L 191.552203 364.157619 
L 196.27829 365.02519 
L 201.02941 365.743132 
L 205.800825 366.310731 
L 210.587781 366.72742 
L 215.385506 366.992784 
L 220.189216 367.106559 
L 224.994124 367.068631 
L 229.795439 366.879038 
L 234.588377 366.537969 
L 239.368158 366.045764 
L 244.130019 365.402913 
L 248.869213 364.610057 
L 253.581015 363.667988 
L 258.260729 362.577643 
L 262.90369 361.340109 
L 267.50527 359.956621 
L 272.060882 358.428558 
L 276.565984 356.757442 
L 281.016087 354.944939 
L 285.406753 352.992856 
L 289.733606 350.903139 
L 293.992334 348.677872 
L 298.17869 346.319271 
L 302.288503 343.829689 
L 306.317674 341.211607 
L 310.262188 338.467635 
L 314.118113 335.600508 
L 317.881606 332.613083 
L 321.548913 329.50834 
L 325.116381 326.289373 
L 328.580453 322.95939 
L 331.937675 319.521711 
L 335.184701 315.979763 
L 338.318295 312.337077 
L 341.335333 308.597283 
L 344.232807 304.764109 
L 347.007829 300.841377 
L 349.657634 296.832996 
L 352.179578 292.742963 
L 354.57115 288.575354 
L 356.829964 284.334324 
L 358.953769 280.0241 
L 360.940448 275.64898 
L 362.78802 271.213323 
L 364.494645 266.721551 
L 366.05862 262.178143 
L 367.478387 257.587627 
L 368.75253 252.954579 
L 369.87978 248.283617 
L 370.859012 243.579397 
L 371.689251 238.84661 
L 372.369669 234.089971 
L 372.899588 229.314224 
L 373.278479 224.524128 
L 373.505964 219.724459 
L 373.581818 214.92 
L 373.581818 214.92 
" style="fill:none;stroke:#000000;stroke-dasharray:3.7,1.6;stroke-dashoffset:0;"/>
   </g>
   <g id="patch_7">
    <path d="M 54 378 
L 54 51.84 
" style="fill:none;"/>
   </g>
   <g id="patch_8">
    <path d="M 388.8 378 
L 388.8 51.84 
" style="fill:none;"/>
   </g>
   <g id="patch_9">
    <path d="M 54 378 
L 388.8 378 
" style="fill:none;"/>
   </g>
   <g id="patch_10">
    <path d="M 54 51.84 
L 388.8 51.84 
" style="fill:none;"/>
   </g>
   <g id="text_7">
    <!-- 0.29 -->
    <g style="fill:#262626;" transform="translate(254.544287 225.882595)scale(0.1 -0.1)">
     <defs>
      <path d="M 581 0 
L 581 641 
L 1222 641 
L 1222 0 
L 581 0 
z
" id="ArialMT-2e" transform="scale(0.015625)"/>
      <path d="M 3222 541 
L 3222 0 
L 194 0 
Q 188 203 259 391 
Q 375 700 629 1000 
Q 884 1300 1366 1694 
Q 2113 2306 2375 2664 
Q 2638 3022 2638 3341 
Q 2638 3675 2398 3904 
Q 2159 4134 1775 4134 
Q 1369 4134 1125 3890 
Q 881 3647 878 3216 
L 300 3275 
Q 359 3922 746 4261 
Q 1134 4600 1788 4600 
Q 2447 4600 2831 4234 
Q 3216 3869 3216 3328 
Q 3216 3053 3103 2787 
Q 2991 2522 2730 2228 
Q 2469 1934 1863 1422 
Q 1356 997 1212 845 
Q 1069 694 975 541 
L 3222 541 
z
" id="ArialMT-32" transform="scale(0.015625)"/>
      <path d="M 350 1059 
L 891 1109 
Q 959 728 1153 556 
Q 1347 384 1650 384 
Q 1909 384 2104 503 
Q 2300 622 2425 820 
Q 2550 1019 2634 1356 
Q 2719 1694 2719 2044 
Q 2719 2081 2716 2156 
Q 2547 1888 2255 1720 
Q 1963 1553 1622 1553 
Q 1053 1553 659 1965 
Q 266 2378 266 3053 
Q 266 3750 677 4175 
Q 1088 4600 1706 4600 
Q 2153 4600 2523 4359 
Q 2894 4119 3086 3673 
Q 3278 3228 3278 2384 
Q 3278 1506 3087 986 
Q 2897 466 2520 194 
Q 2144 -78 1638 -78 
Q 1100 -78 759 220 
Q 419 519 350 1059 
z
M 2653 3081 
Q 2653 3566 2395 3850 
Q 2138 4134 1775 4134 
Q 1400 4134 1122 3828 
Q 844 3522 844 3034 
Q 844 2597 1108 2323 
Q 1372 2050 1759 2050 
Q 2150 2050 2401 2323 
Q 2653 2597 2653 3081 
z
" id="ArialMT-39" transform="scale(0.015625)"/>
     </defs>
     <use xlink:href="#ArialMT-30"/>
     <use x="55.615234" xlink:href="#ArialMT-2e"/>
     <use x="83.398438" xlink:href="#ArialMT-32"/>
     <use x="139.013672" xlink:href="#ArialMT-39"/>
    </g>
   </g>
   <g id="text_8">
    <!-- 0.19 -->
    <g style="fill:#262626;" transform="translate(240.049877 225.882595)scale(0.1 -0.1)">
     <use xlink:href="#ArialMT-30"/>
     <use x="55.615234" xlink:href="#ArialMT-2e"/>
     <use x="83.398438" xlink:href="#ArialMT-31"/>
     <use x="139.013672" xlink:href="#ArialMT-39"/>
    </g>
   </g>
   <g id="text_9">
    <!-- 0.46 -->
    <g style="fill:#262626;" transform="translate(281.303197 225.882595)scale(0.1 -0.1)">
     <defs>
      <path d="M 2069 0 
L 2069 1097 
L 81 1097 
L 81 1613 
L 2172 4581 
L 2631 4581 
L 2631 1613 
L 3250 1613 
L 3250 1097 
L 2631 1097 
L 2631 0 
L 2069 0 
z
M 2069 1613 
L 2069 3678 
L 634 1613 
L 2069 1613 
z
" id="ArialMT-34" transform="scale(0.015625)"/>
      <path d="M 3184 3459 
L 2625 3416 
Q 2550 3747 2413 3897 
Q 2184 4138 1850 4138 
Q 1581 4138 1378 3988 
Q 1113 3794 959 3422 
Q 806 3050 800 2363 
Q 1003 2672 1297 2822 
Q 1591 2972 1913 2972 
Q 2475 2972 2870 2558 
Q 3266 2144 3266 1488 
Q 3266 1056 3080 686 
Q 2894 316 2569 119 
Q 2244 -78 1831 -78 
Q 1128 -78 684 439 
Q 241 956 241 2144 
Q 241 3472 731 4075 
Q 1159 4600 1884 4600 
Q 2425 4600 2770 4297 
Q 3116 3994 3184 3459 
z
M 888 1484 
Q 888 1194 1011 928 
Q 1134 663 1356 523 
Q 1578 384 1822 384 
Q 2178 384 2434 671 
Q 2691 959 2691 1453 
Q 2691 1928 2437 2201 
Q 2184 2475 1800 2475 
Q 1419 2475 1153 2201 
Q 888 1928 888 1484 
z
" id="ArialMT-36" transform="scale(0.015625)"/>
     </defs>
     <use xlink:href="#ArialMT-30"/>
     <use x="55.615234" xlink:href="#ArialMT-2e"/>
     <use x="83.398438" xlink:href="#ArialMT-34"/>
     <use x="139.013672" xlink:href="#ArialMT-36"/>
    </g>
   </g>
   <g id="text_10">
    <!-- 0.13 -->
    <g style="fill:#262626;" transform="translate(230.912097 225.882595)scale(0.1 -0.1)">
     <defs>
      <path d="M 269 1209 
L 831 1284 
Q 928 806 1161 595 
Q 1394 384 1728 384 
Q 2125 384 2398 659 
Q 2672 934 2672 1341 
Q 2672 1728 2419 1979 
Q 2166 2231 1775 2231 
Q 1616 2231 1378 2169 
L 1441 2663 
Q 1497 2656 1531 2656 
Q 1891 2656 2178 2843 
Q 2466 3031 2466 3422 
Q 2466 3731 2256 3934 
Q 2047 4138 1716 4138 
Q 1388 4138 1169 3931 
Q 950 3725 888 3313 
L 325 3413 
Q 428 3978 793 4289 
Q 1159 4600 1703 4600 
Q 2078 4600 2393 4439 
Q 2709 4278 2876 4000 
Q 3044 3722 3044 3409 
Q 3044 3113 2884 2869 
Q 2725 2625 2413 2481 
Q 2819 2388 3044 2092 
Q 3269 1797 3269 1353 
Q 3269 753 2831 336 
Q 2394 -81 1725 -81 
Q 1122 -81 723 278 
Q 325 638 269 1209 
z
" id="ArialMT-33" transform="scale(0.015625)"/>
     </defs>
     <use xlink:href="#ArialMT-30"/>
     <use x="55.615234" xlink:href="#ArialMT-2e"/>
     <use x="83.398438" xlink:href="#ArialMT-31"/>
     <use x="139.013672" xlink:href="#ArialMT-33"/>
    </g>
   </g>
  </g>
 </g>
 <defs>
  <clipPath id="p852cb5ea0e">
   <rect height="326.16" width="334.8" x="54" y="51.84"/>
  </clipPath>
 </defs>
</svg>
